<svg width="347" height="102" viewBox="0 0 347 102" fill="none" xmlns="http://www.w3.org/2000/svg">
<ellipse cx="50.5" cy="50.7762" rx="50.5" ry="50.7762" fill="#08CB9E"/>
<path d="M50.4999 30.667C46.0444 30.667 44.0723 36.1677 47.547 38.9035C47.8514 39.1432 47.8521 39.5975 47.5484 39.8381L42.7294 43.6562C42.3344 43.9692 41.7606 43.953 41.4109 43.592C34.1616 36.1087 39.4 23.126 50.4999 23.126C61.5998 23.126 66.8382 36.1088 59.5889 43.592C59.2392 43.953 58.6654 43.9691 58.2704 43.6562L53.4513 39.838C53.1476 39.5974 53.1484 39.1432 53.4528 38.9035C56.9275 36.1678 54.9555 30.667 50.4999 30.667Z" fill="white"/>
<path fill-rule="evenodd" clip-rule="evenodd" d="M52.9152 43.13C51.5062 42.0136 49.4938 42.0136 48.0848 43.13L31.4286 56.3268C30.5251 57.0426 30 58.1208 30 59.26V74.6562C30 76.7386 31.7209 78.4268 33.8437 78.4268H67.1563C69.2791 78.4268 71 76.7386 71 74.6562V59.26C71 58.1208 70.4749 57.0426 69.5714 56.3268L52.9152 43.13ZM37.6875 70.8857V61.0614L50.5 50.91L63.3125 61.0614V70.8857H37.6875Z" fill="white"/>
<path d="M142.684 40.4069C139.352 40.4069 136.468 41.8629 134.424 44.3269V30.9989C134.424 29.8509 133.78 29.2069 132.632 29.2069H128.516C127.368 29.2069 126.724 29.8509 126.724 30.9989V68.2949C126.724 69.4429 127.368 70.0869 128.516 70.0869H132.632C133.78 70.0869 134.424 69.4429 134.424 68.2949V54.2949C134.424 49.9269 137.448 47.2109 141.004 47.2109C143.972 47.2109 146.492 49.7309 146.492 52.9509V68.2949C146.492 69.4429 147.136 70.0869 148.284 70.0869H152.4C153.548 70.0869 154.192 69.4429 154.192 68.2949V52.1389C154.192 45.1109 149.488 40.4069 142.684 40.4069ZM159.164 55.5829C159.164 64.0669 166.052 70.7589 175.264 70.7589C184.504 70.7589 191.364 64.0669 191.364 55.5829C191.364 47.0989 184.504 40.4069 175.264 40.4069C166.052 40.4069 159.164 47.0989 159.164 55.5829ZM166.892 55.5829C166.892 50.8789 170.532 47.2109 175.264 47.2109C180.024 47.2109 183.664 50.8789 183.664 55.5829C183.664 60.3149 180.024 63.9549 175.264 63.9549C170.532 63.9549 166.892 60.3149 166.892 55.5829ZM197.588 62.4989L196.72 63.4789C195.992 64.2909 195.908 65.1589 196.664 65.9989C199.408 69.1069 202.6 70.7589 206.436 70.7589C213.632 70.7589 217.916 66.9229 217.916 61.7989C217.916 56.8989 214.836 53.8189 208.116 52.4469C204.868 51.7749 203.496 50.5149 203.496 48.9749C203.496 47.4909 205.008 46.5669 206.828 46.5669C208.256 46.5669 209.32 47.1269 209.964 48.1629C210.496 49.0589 210.972 49.5629 212.008 49.5629H215.704C216.964 49.5629 217.664 48.7789 217.272 47.5749C215.816 43.1789 212.176 40.4069 206.436 40.4069C200.136 40.4069 195.964 43.9909 195.964 48.8629C195.964 53.6789 199.1 56.8709 205.4 58.1589C209.152 58.9149 210.384 59.9789 210.384 61.7149C210.384 63.4789 208.788 64.5989 206.128 64.5989C203.832 64.5989 201.928 63.8149 200.108 62.3589C199.184 61.6029 198.344 61.6309 197.588 62.4989ZM232.553 60.0349V47.7709H237.593C238.741 47.7709 239.385 47.1269 239.385 45.9789V42.8709C239.385 41.7229 238.741 41.0789 237.593 41.0789H232.553V34.6669C232.553 33.4349 231.797 32.8189 230.593 33.0709L226.449 33.8829C225.385 34.1069 224.853 34.7229 224.853 35.8149V41.0789H221.577C220.429 41.0789 219.785 41.7229 219.785 42.8709V45.9789C219.785 47.1269 220.429 47.7709 221.577 47.7709H224.853V60.5109C224.853 67.3149 228.325 70.7589 234.597 70.7589C235.969 70.7589 237.313 70.5349 238.405 70.1429C239.357 69.8069 239.721 69.0509 239.721 68.0709V65.7749C239.721 64.5989 239.077 64.0109 237.873 64.0389C237.565 64.0669 237.257 64.0669 236.977 64.0669C233.757 64.0669 232.553 62.8069 232.553 60.0349ZM260.864 40.4069C257.532 40.4069 254.648 41.8629 252.604 44.3269V30.9989C252.604 29.8509 251.96 29.2069 250.812 29.2069H246.696C245.548 29.2069 244.904 29.8509 244.904 30.9989V68.2949C244.904 69.4429 245.548 70.0869 246.696 70.0869H250.812C251.96 70.0869 252.604 69.4429 252.604 68.2949V54.2949C252.604 49.9269 255.628 47.2109 259.184 47.2109C262.152 47.2109 264.672 49.7309 264.672 52.9509V68.2949C264.672 69.4429 265.316 70.0869 266.464 70.0869H270.58C271.728 70.0869 272.372 69.4429 272.372 68.2949V52.1389C272.372 45.1109 267.668 40.4069 260.864 40.4069ZM290.167 70.7589C293.471 70.7589 296.383 69.3029 298.427 66.8669V68.2949C298.427 69.4429 299.071 70.0869 300.219 70.0869H304.335C305.483 70.0869 306.127 69.4429 306.127 68.2949V42.8709C306.127 41.7229 305.483 41.0789 304.335 41.0789H300.219C299.071 41.0789 298.427 41.7229 298.427 42.8709V56.5349C298.427 61.0989 295.487 63.9549 291.847 63.9549C288.879 63.9549 286.359 61.4349 286.359 58.2149V42.8709C286.359 41.7229 285.715 41.0789 284.567 41.0789H280.451C279.303 41.0789 278.659 41.7229 278.659 42.8709V59.0269C278.659 66.0549 283.363 70.7589 290.167 70.7589ZM344.867 55.5829C344.867 47.0989 338.959 40.4069 330.867 40.4069C326.807 40.4069 323.503 41.9749 321.207 44.5509V30.9989C321.207 29.8509 320.563 29.2069 319.415 29.2069H315.383C314.235 29.2069 313.591 29.8509 313.591 30.9989V68.2949C313.591 69.4429 314.235 70.0869 315.383 70.0869H319.415C320.563 70.0869 321.207 69.4429 321.207 68.2949V66.6149C323.503 69.1909 326.807 70.7589 330.867 70.7589C338.959 70.7589 344.867 64.0669 344.867 55.5829ZM337.139 55.5829C337.139 60.3149 333.667 63.9549 329.215 63.9549C324.735 63.9549 321.207 60.3149 321.207 55.5829C321.207 50.8789 324.735 47.2109 329.215 47.2109C333.667 47.2109 337.139 50.8789 337.139 55.5829Z" fill="#5C6065"/>
</svg>
