<?xml version="1.0" encoding="UTF-8"?> <!-- Generator: Adobe Illustrator 23.0.1, SVG Export Plug-In . SVG Version: 6.00 Build 0) --> <svg xmlns="http://www.w3.org/2000/svg" xmlns:xlink="http://www.w3.org/1999/xlink" version="1.1" id="Layer_1" x="0px" y="0px" viewBox="0 0 1510 397" style="enable-background:new 0 0 1510 397;" xml:space="preserve"> <style type="text/css"> .st0{clip-path:url(#SVGID_2_);} .st1{fill:#F0494B;} .st2{fill-rule:evenodd;clip-rule:evenodd;fill:#FFFFFF;} .st3{fill:#1C1C1C;} .st4{clip-path:url(#SVGID_4_);} .st5{fill:#FFFFFF;} .st6{fill:#333333;} .st7{fill:none;stroke:#010101;stroke-opacity:0.2;} </style> <g> <defs> <rect id="SVGID_1_" x="-0.4" y="-0.1" width="1510.7" height="396.1"></rect> </defs> <clipPath id="SVGID_2_"> <use xlink:href="#SVGID_1_" style="overflow:visible;"></use> </clipPath> <g class="st0"> <path class="st1" d="M198.68,393.94c109.17,0,197.68-87.75,197.68-195.99c0-108.24-88.5-195.99-197.68-195.99 S1.01,89.71,1.01,197.95C1.01,306.19,89.51,393.94,198.68,393.94z"></path> <path class="st2" d="M157.61,115.43l27.9,29.1l-61.04,56.48l61.04,68.47l-29.65,27.39l-92.43-95.85L157.61,115.43z M233.53,115.43 l94.18,85.58l-92.43,95.85l-29.65-27.39l61.04-68.47l-61.04-56.48L233.53,115.43z"></path> <path class="st1" d="M478.4,113.21h69.87c17.87,0,31.75,4.35,41.64,13.05c9.89,8.7,14.84,21.04,14.84,37.01 c0,15.82-4.95,28.15-14.84,37.01c-9.88,8.86-23.77,13.29-41.64,13.29h-45.22v66.9H478.4V113.21z M545.65,193.88 c23.61,0,35.41-10.2,35.41-30.6c0-20.25-11.8-30.37-35.41-30.37h-42.6v60.97H545.65z M702.62,182.01l-14.6,1.42 c-11.49,1.11-19.74,4.59-24.76,10.44c-5.03,5.85-7.54,13.29-7.54,22.3v64.29h-24.16V164.69H655v20.17 c6.23-13.6,18.9-21.11,38.05-22.54l7.89-0.47L702.62,182.01z M719.13,164.69h24.17v115.78h-24.17V164.69z M745.22,112.97v24.91 h-27.76v-24.91H745.22z M828.25,282.13c-11.81,0-22.05-2.45-30.75-7.35c-8.7-4.9-15.39-11.82-20.1-20.76s-7.07-19.41-7.07-31.43 c0-12.02,2.43-22.62,7.3-31.79c4.86-9.17,11.72-16.29,20.58-21.35c8.85-5.06,19.18-7.59,30.99-7.59c8.13,0,15.99,1.34,23.56,4.03 c7.58,2.69,13.76,6.33,18.55,10.91l-7.42,17.08c-10.53-8.54-21.45-12.81-32.77-12.81c-11.17,0-19.91,3.6-26.21,10.8 c-6.3,7.2-9.45,17.36-9.45,30.49c0,12.97,3.11,22.97,9.33,30.01c6.22,7.04,15,10.56,26.33,10.56c11.32,0,22.25-4.27,32.77-12.81 l7.42,17.32c-5.1,4.59-11.49,8.18-19.14,10.79C844.52,280.83,836.54,282.13,828.25,282.13z M992.64,226.62h-82.55 c1.75,24.52,14.04,36.77,36.85,36.77c13.4,0,25.53-4.35,36.38-13.05l7.42,16.84c-5.43,4.59-12.12,8.23-20.1,10.91 c-7.98,2.69-16.11,4.03-24.4,4.03c-18.67,0-33.38-5.3-44.15-15.9c-10.77-10.6-16.16-25.23-16.16-43.89 c0-11.86,2.36-22.38,7.07-31.55c4.71-9.17,11.32-16.29,19.86-21.35c8.53-5.06,18.22-7.59,29.07-7.59 c15.79,0,28.2,5.06,37.21,15.18c9.02,10.12,13.52,24.12,13.52,41.99V226.62z M942.39,179.4c-9.26,0-16.63,2.89-22.14,8.66 c-5.5,5.77-8.82,14.04-9.93,24.79h61.5c-0.48-10.76-3.23-19.02-8.25-24.79C958.54,182.29,951.48,179.4,942.39,179.4z"></path> <path class="st3" d="M1198.91,161.85c15.64,0,27.25,3.88,34.82,11.63c7.58,7.75,11.37,19.53,11.37,35.35v71.65h-23.21v-19.22 c-3.03,6.8-7.54,11.98-13.51,15.54c-5.99,3.56-12.97,5.34-20.94,5.34c-7.66,0-14.68-1.54-21.06-4.63 c-6.38-3.08-11.37-7.39-14.96-12.93c-3.59-5.54-5.39-11.7-5.39-18.51c0-8.38,2.2-14.99,6.59-19.81 c4.38-4.82,11.64-8.26,21.78-10.32c10.12-2.06,24.04-3.08,41.76-3.08h5.5v-6.88c0-8.86-1.87-15.26-5.62-19.22 c-3.75-3.95-9.86-5.93-18.3-5.93c-13.25,0-26.48,4.03-39.73,12.1l-7.18-16.85c6.22-4.27,13.76-7.71,22.61-10.32 C1182.28,163.15,1190.77,161.85,1198.91,161.85z M1302.29,113.21v70.46c3.51-6.96,8.61-12.34,15.31-16.13 c6.7-3.8,14.43-5.69,23.21-5.69c10.21,0,19.22,2.45,27.04,7.35c7.82,4.9,13.92,11.86,18.31,20.88c4.38,9.02,6.58,19.53,6.58,31.55 c0,11.86-2.19,22.38-6.58,31.55c-4.39,9.17-10.53,16.29-18.43,21.35c-7.89,5.06-16.87,7.59-26.92,7.59 c-8.78,0-16.52-1.86-23.21-5.57c-6.7-3.72-11.8-9.06-15.31-16.01v19.93h-24.17V113.21H1302.29z M1462.61,161.85 c8.3,0,16.19,1.31,23.69,3.91c7.5,2.61,13.96,6.29,19.38,11.03l-7.42,16.84c-11.49-9.02-23.37-13.52-35.66-13.52 c-7.33,0-13.12,1.42-17.35,4.27c-4.23,2.85-6.34,6.72-6.34,11.63c0,3.95,1.31,7.16,3.94,9.61c2.63,2.45,6.83,4.31,12.56,5.57 l19.86,4.51c11.33,2.53,19.62,6.44,24.89,11.74c5.26,5.3,7.89,12.22,7.89,20.76c0,10.44-4.27,18.7-12.8,24.79 c-8.53,6.09-20.06,9.13-34.58,9.13c-20.26,0-36.45-4.9-48.57-14.71l7.42-17.32c11.97,9.17,25.93,13.76,41.88,13.76 c7.82,0,13.8-1.31,17.95-3.91c4.15-2.61,6.22-6.29,6.22-11.03c0-4.11-1.39-7.35-4.18-9.73c-2.8-2.37-7.62-4.35-14.48-5.93 l-19.38-4.27c-10.37-2.37-18.19-6.25-23.45-11.63c-5.27-5.38-7.89-12.18-7.89-20.4c0-10.44,4.26-18.9,12.8-25.39 C1437.52,165.09,1448.73,161.85,1462.61,161.85z M1046.72,113.21v146.86h81.84v20.4h-106.49V113.21H1046.72z M1221.64,226.38h-4.3 c-12.44,0-22.02,0.55-28.72,1.66c-6.7,1.11-11.48,2.97-14.35,5.58c-2.87,2.61-4.31,6.37-4.31,11.27c0,5.54,2.04,10.16,6.11,13.88 c4.06,3.72,9.29,5.58,15.67,5.58c8.78,0,15.95-2.97,21.54-8.9c5.58-5.93,8.37-13.56,8.37-22.89V226.38z M1335.06,181.06 c-10.53,0-18.62,3.56-24.28,10.68c-5.67,7.12-8.49,17.24-8.49,30.37c0,13.13,2.83,23.25,8.49,30.37 c5.67,7.12,13.75,10.68,24.28,10.68c10.37,0,18.47-3.64,24.29-10.91c5.82-7.28,8.73-17.48,8.73-30.61 c0-12.97-2.86-22.97-8.61-30.01C1353.74,184.58,1345.59,181.06,1335.06,181.06z"></path> </g> </g> </svg> 